<mxfile host="app.diagrams.net" modified="2023-09-12T23:35:35.542Z" agent="Mozilla/5.0 (Macintosh; Intel Mac OS X 10_15_7) AppleWebKit/537.36 (KHTML, like Gecko) Chrome/116.0.0.0 Safari/537.36" version="21.7.4" etag="ZP4vYIDylDvjcAbItiBj" type="github">
  <diagram name="Page-1" id="Aepk1z3x0AU0BN8KnOkQ">
    <mxGraphModel>
      <root>
        <mxCell id="0" />
        <mxCell id="1" parent="0" />
      </root>
    </mxGraphModel>
  </diagram>
</mxfile>
